<svg width="212" height="62" viewBox="0 0 212 62" fill="none" xmlns="http://www.w3.org/2000/svg">
<path d="M29.5605 31.1152C29.5605 33.0254 29.332 34.7773 28.875 36.3711C28.4297 37.9531 27.7383 39.3242 26.8008 40.4844C25.8633 41.6445 24.6738 42.5527 23.2324 43.209L29.4199 50.1172H22.4414L17.7305 44.3516C17.6484 44.3516 17.5781 44.3516 17.5195 44.3516C17.4609 44.3516 17.3965 44.3516 17.3262 44.3516C15.2285 44.3516 13.4121 44.041 11.877 43.4199C10.3418 42.7871 9.07031 41.8848 8.0625 40.7129C7.06641 39.541 6.32227 38.1406 5.83008 36.5117C5.33789 34.8828 5.0918 33.0723 5.0918 31.0801C5.0918 28.4199 5.52539 26.1055 6.39258 24.1367C7.27148 22.1562 8.61914 20.6211 10.4355 19.5312C12.252 18.4414 14.5605 17.8965 17.3613 17.8965C20.1504 17.8965 22.4414 18.4414 24.2344 19.5312C26.0391 20.6211 27.375 22.1562 28.2422 24.1367C29.1211 26.1172 29.5605 28.4434 29.5605 31.1152ZM10.8047 31.1152C10.8047 32.9082 11.0273 34.4551 11.4727 35.7559C11.9297 37.0449 12.6387 38.041 13.5996 38.7441C14.5605 39.4355 15.8027 39.7812 17.3262 39.7812C18.873 39.7812 20.127 39.4355 21.0879 38.7441C22.0488 38.041 22.7461 37.0449 23.1797 35.7559C23.625 34.4551 23.8477 32.9082 23.8477 31.1152C23.8477 28.4199 23.3438 26.2988 22.3359 24.752C21.3281 23.2051 19.6699 22.4316 17.3613 22.4316C15.8262 22.4316 14.5723 22.7832 13.5996 23.4863C12.6387 24.1777 11.9297 25.1738 11.4727 26.4746C11.0273 27.7637 10.8047 29.3105 10.8047 31.1152ZM52.5 24.3477V44H48.3867L47.666 41.4863H47.3848C46.9629 42.1543 46.4355 42.6992 45.8027 43.1211C45.1699 43.543 44.4727 43.8535 43.7109 44.0527C42.9492 44.252 42.1582 44.3516 41.3379 44.3516C39.9316 44.3516 38.707 44.1055 37.6641 43.6133C36.6211 43.1094 35.8066 42.3301 35.2207 41.2754C34.6465 40.2207 34.3594 38.8496 34.3594 37.1621V24.3477H39.7207V35.8262C39.7207 37.2324 39.9727 38.293 40.4766 39.0078C40.9805 39.7227 41.7832 40.0801 42.8848 40.0801C43.9746 40.0801 44.8301 39.834 45.4512 39.3418C46.0723 38.8379 46.5059 38.1055 46.752 37.1445C47.0098 36.1719 47.1387 34.9883 47.1387 33.5938V24.3477H52.5ZM66.2285 23.9785C68.0449 23.9785 69.6094 24.3301 70.9219 25.0332C72.2344 25.7246 73.248 26.7324 73.9629 28.0566C74.6777 29.3809 75.0352 30.998 75.0352 32.9082V35.5098H62.3613C62.4199 37.0215 62.8711 38.2109 63.7148 39.0781C64.5703 39.9336 65.7539 40.3613 67.2656 40.3613C68.5195 40.3613 69.668 40.2324 70.7109 39.9746C71.7539 39.7168 72.8262 39.3301 73.9277 38.8145V42.9629C72.9551 43.4434 71.9355 43.7949 70.8691 44.0176C69.8145 44.2402 68.5312 44.3516 67.0195 44.3516C65.0508 44.3516 63.3047 43.9883 61.7812 43.2617C60.2695 42.5352 59.0801 41.4277 58.2129 39.9395C57.3574 38.4512 56.9297 36.5762 56.9297 34.3145C56.9297 32.0176 57.3164 30.1074 58.0898 28.584C58.875 27.0488 59.9648 25.9004 61.3594 25.1387C62.7539 24.3652 64.377 23.9785 66.2285 23.9785ZM66.2637 27.793C65.2207 27.793 64.3535 28.127 63.6621 28.7949C62.9824 29.4629 62.5898 30.5117 62.4844 31.9414H70.0078C69.9961 31.1445 69.8496 30.4355 69.5684 29.8145C69.2988 29.1934 68.8887 28.7012 68.3379 28.3379C67.7988 27.9746 67.1074 27.793 66.2637 27.793ZM93.1055 38.1641C93.1055 39.5 92.7891 40.6309 92.1562 41.5566C91.5352 42.4707 90.6035 43.168 89.3613 43.6484C88.1191 44.1172 86.5723 44.3516 84.7207 44.3516C83.3496 44.3516 82.1719 44.2637 81.1875 44.0879C80.2148 43.9121 79.2305 43.6191 78.2344 43.209V38.7793C79.3008 39.2598 80.4434 39.6582 81.6621 39.9746C82.8926 40.2793 83.9707 40.4316 84.8965 40.4316C85.9395 40.4316 86.6836 40.2793 87.1289 39.9746C87.5859 39.6582 87.8145 39.248 87.8145 38.7441C87.8145 38.416 87.7207 38.123 87.5332 37.8652C87.3574 37.5957 86.9707 37.2969 86.373 36.9688C85.7754 36.6289 84.8379 36.1895 83.5605 35.6504C82.3301 35.1348 81.3164 34.6133 80.5195 34.0859C79.7344 33.5586 79.1484 32.9375 78.7617 32.2227C78.3867 31.4961 78.1992 30.5762 78.1992 29.4629C78.1992 27.6465 78.9023 26.2812 80.3086 25.3672C81.7266 24.4414 83.6191 23.9785 85.9863 23.9785C87.2051 23.9785 88.3652 24.1016 89.4668 24.3477C90.5801 24.5938 91.7227 24.9863 92.8945 25.5254L91.2773 29.3926C90.3047 28.9707 89.3848 28.625 88.5176 28.3555C87.6621 28.0859 86.7891 27.9512 85.8984 27.9512C85.1133 27.9512 84.5215 28.0566 84.123 28.2676C83.7246 28.4785 83.5254 28.8008 83.5254 29.2344C83.5254 29.5508 83.625 29.832 83.8242 30.0781C84.0352 30.3242 84.4336 30.5996 85.0195 30.9043C85.6172 31.1973 86.4902 31.5781 87.6387 32.0469C88.752 32.5039 89.7188 32.9844 90.5391 33.4883C91.3594 33.9805 91.9922 34.5957 92.4375 35.334C92.8828 36.0605 93.1055 37.0039 93.1055 38.1641ZM105.568 40.0801C106.154 40.0801 106.723 40.0215 107.273 39.9043C107.836 39.7871 108.393 39.6406 108.943 39.4648V43.4551C108.369 43.7129 107.654 43.9238 106.799 44.0879C105.955 44.2637 105.029 44.3516 104.021 44.3516C102.85 44.3516 101.795 44.1641 100.857 43.7891C99.9316 43.4023 99.1992 42.7402 98.6602 41.8027C98.1328 40.8535 97.8691 39.5352 97.8691 37.8477V28.373H95.3027V26.1055L98.2559 24.3125L99.8027 20.1641H103.23V24.3477H108.732V28.373H103.23V37.8477C103.23 38.5977 103.441 39.1602 103.863 39.5352C104.297 39.8984 104.865 40.0801 105.568 40.0801ZM122.707 44V18.3008H128.156V39.5H138.58V44H122.707ZM160.5 34.1387C160.5 35.7793 160.277 37.2324 159.832 38.498C159.398 39.7637 158.76 40.8359 157.916 41.7148C157.084 42.582 156.076 43.2383 154.893 43.6836C153.721 44.1289 152.396 44.3516 150.92 44.3516C149.537 44.3516 148.266 44.1289 147.105 43.6836C145.957 43.2383 144.955 42.582 144.1 41.7148C143.256 40.8359 142.6 39.7637 142.131 38.498C141.674 37.2324 141.445 35.7793 141.445 34.1387C141.445 31.959 141.832 30.1133 142.605 28.6016C143.379 27.0898 144.48 25.9414 145.91 25.1562C147.34 24.3711 149.045 23.9785 151.025 23.9785C152.865 23.9785 154.494 24.3711 155.912 25.1562C157.342 25.9414 158.461 27.0898 159.27 28.6016C160.09 30.1133 160.5 31.959 160.5 34.1387ZM146.912 34.1387C146.912 35.4277 147.053 36.5117 147.334 37.3906C147.615 38.2695 148.055 38.9316 148.652 39.377C149.25 39.8223 150.029 40.0449 150.99 40.0449C151.939 40.0449 152.707 39.8223 153.293 39.377C153.891 38.9316 154.324 38.2695 154.594 37.3906C154.875 36.5117 155.016 35.4277 155.016 34.1387C155.016 32.8379 154.875 31.7598 154.594 30.9043C154.324 30.0371 153.891 29.3867 153.293 28.9531C152.695 28.5195 151.916 28.3027 150.955 28.3027C149.537 28.3027 148.506 28.7891 147.861 29.7617C147.229 30.7344 146.912 32.1934 146.912 34.1387ZM170.678 52.6484C167.936 52.6484 165.838 52.168 164.385 51.207C162.943 50.2578 162.223 48.9219 162.223 47.1992C162.223 46.0156 162.592 45.0254 163.33 44.2285C164.068 43.4316 165.152 42.8633 166.582 42.5234C166.031 42.2891 165.551 41.9082 165.141 41.3809C164.73 40.8418 164.525 40.2734 164.525 39.6758C164.525 38.9258 164.742 38.3047 165.176 37.8125C165.609 37.3086 166.236 36.8164 167.057 36.3359C166.025 35.8906 165.205 35.1758 164.596 34.1914C163.998 33.207 163.699 32.0469 163.699 30.7109C163.699 29.2812 164.01 28.0684 164.631 27.0723C165.264 26.0645 166.178 25.2969 167.373 24.7695C168.58 24.2422 170.045 23.9785 171.768 23.9785C172.131 23.9785 172.553 24.002 173.033 24.0488C173.514 24.0957 173.953 24.1484 174.352 24.207C174.762 24.2656 175.037 24.3125 175.178 24.3477H182.033V27.0723L178.957 27.8633C179.238 28.2969 179.449 28.7598 179.59 29.252C179.73 29.7441 179.801 30.2656 179.801 30.8164C179.801 32.9258 179.062 34.5723 177.586 35.7559C176.121 36.9277 174.082 37.5137 171.469 37.5137C170.848 37.4785 170.262 37.4316 169.711 37.373C169.441 37.584 169.236 37.8066 169.096 38.041C168.955 38.2754 168.885 38.5215 168.885 38.7793C168.885 39.0371 168.99 39.2539 169.201 39.4297C169.424 39.5938 169.752 39.7227 170.186 39.8164C170.631 39.8984 171.182 39.9395 171.838 39.9395H175.178C177.334 39.9395 178.975 40.4023 180.1 41.3281C181.236 42.2539 181.805 43.6133 181.805 45.4062C181.805 47.7031 180.844 49.4844 178.922 50.75C177.012 52.0156 174.264 52.6484 170.678 52.6484ZM170.906 49.1504C172.184 49.1504 173.279 49.0273 174.193 48.7812C175.119 48.5469 175.828 48.207 176.32 47.7617C176.812 47.3281 177.059 46.8066 177.059 46.1973C177.059 45.7051 176.912 45.3125 176.619 45.0195C176.338 44.7383 175.904 44.5391 175.318 44.4219C174.744 44.3047 174.006 44.2461 173.104 44.2461H170.326C169.67 44.2461 169.078 44.3516 168.551 44.5625C168.035 44.7734 167.625 45.0664 167.32 45.4414C167.016 45.8281 166.863 46.2734 166.863 46.7773C166.863 47.5156 167.215 48.0957 167.918 48.5176C168.633 48.9395 169.629 49.1504 170.906 49.1504ZM171.768 34.2441C172.775 34.2441 173.514 33.9336 173.982 33.3125C174.451 32.6914 174.686 31.8477 174.686 30.7812C174.686 29.5977 174.439 28.7129 173.947 28.127C173.467 27.5293 172.74 27.2305 171.768 27.2305C170.783 27.2305 170.045 27.5293 169.553 28.127C169.061 28.7129 168.814 29.5977 168.814 30.7812C168.814 31.8477 169.055 32.6914 169.535 33.3125C170.027 33.9336 170.771 34.2441 171.768 34.2441Z" fill="white"/>
<circle cx="195.168" cy="45.2897" r="4.5" transform="rotate(9.29998 195.168 45.2897)" fill="#B70D0D"/>
<path d="M198.762 36.3317L204.391 14.3559C204.991 12.0133 203.453 9.66025 201.067 9.26945C198.68 8.87865 196.472 10.6183 196.294 13.03L194.619 35.6533C194.539 36.7419 195.303 37.7119 196.38 37.8883C197.457 38.0647 198.491 37.3892 198.762 36.3317Z" fill="#B70D0D"/>
</svg>
